<svg viewBox="0 0 24 24" xmlns="http://www.w3.org/2000/svg">
<path d="M21.029 6.723H20.855C19.939 6.722 19.196 7.464 19.196 8.380V12.084C19.196 12.824 18.584 13.423 17.857 13.423C17.424 13.423 16.993 13.205 16.737 12.840L12.953 7.437C12.639 6.988 12.129 6.721 11.576 6.721C10.713 6.721 9.937 7.454 9.937 8.359V12.085C9.937 12.825 9.331 13.424 8.598 13.424C8.164 13.424 7.733 13.206 7.477 12.841L3.244 6.794C3.148 6.657 2.933 6.725 2.933 6.892V10.122C2.933 10.286 2.983 10.444 3.077 10.578L7.243 16.528C7.489 16.880 7.852 17.141 8.271 17.236C9.319 17.474 10.284 16.667 10.284 15.639V11.916C10.284 11.176 10.883 10.577 11.623 10.577H11.625C12.071 10.577 12.489 10.794 12.745 11.160L16.529 16.562C16.844 17.012 17.328 17.279 17.906 17.279C18.788 17.279 19.543 16.545 19.543 15.640V11.915C19.543 11.175 20.142 10.576 20.882 10.576H21.030C21.123 10.576 21.198 10.501 21.198 10.409V6.891C21.198 6.798 21.123 6.723 21.030 6.723H21.029Z" fill="white"/>
</svg>
