<svg role="img" viewBox="0 0 24 24" xmlns="http://www.w3.org/2000/svg"><title>Auto Runtime</title><path d="M12 2C6.48 2 2 6.48 2 12s4.48 10 10 10 10-4.48 10-10S17.52 2 12 2zm0 18c-4.42 0-8-3.58-8-8s3.58-8 8-8 8 3.58 8 8-3.58 8-8 8z" fill="white"/><path d="M12 6v6l4.24 2.54.84-1.4-3.58-2.14V6h-1.5z" fill="white"/><path d="M16.95 7.05l1.41-1.41A9.97 9.97 0 0012 3v2a7.97 7.97 0 013.54.84l1.41-1.79z" fill="none"/><path d="M17.65 6.35C16.2 4.9 14.21 4 12 4v1.5c1.8 0 3.43.69 4.66 1.82l1-1z" fill="white" opacity="0.7"/><path d="M6.35 17.65C7.8 19.1 9.79 20 12 20v-1.5c-1.8 0-3.43-.69-4.66-1.82l-1 1z" fill="white" opacity="0.7"/><path d="M19 12h2c0 2.21-.9 4.2-2.35 5.65l-1.41-1.41A5.98 5.98 0 0019 12z" fill="white" opacity="0.5"/><path d="M5 12H3c0-2.21.9-4.2 2.35-5.65l1.41 1.41A5.98 5.98 0 005 12z" fill="white" opacity="0.5"/></svg>
